Coordinates
version=1
nRows=26
nColumns=36
inDegrees=no

Units are S.I. units (second, meters, Newtons, ...)
If the header above contains a line with 'inDegrees', this indicates whether rotational values are in degrees (yes) or radians (no).

endheader
time	pelvis_tilt	pelvis_list	pelvis_rotation	pelvis_tx	pelvis_ty	pelvis_tz	hip_flexion_r	hip_adduction_r	hip_rotation_r	knee_angle_r	knee_adduction_r	ankle_angle_r	subtalar_angle_r	mtp_angle_r	hip_flexion_l	hip_adduction_l	hip_rotation_l	knee_angle_l	knee_adduction_l	ankle_angle_l	subtalar_angle_l	mtp_angle_l	lumbar_extension	lumbar_bending	lumbar_rotation	arm_flex_r	arm_add_r	arm_rot_r	elbow_flex_r	pro_sup_r	arm_flex_l	arm_add_l	arm_rot_l	elbow_flex_l	pro_sup_l
8.09	-0.168359	-0.0362341	-0.00437742	-0.201966	0.924312	-1.20595	0.253049	-0.0880757	-0.252507	0.228742	0.0729215	0.155605	0.179834	-0.128915	0.238902	-0.222713	-0.3182	0.208492	0.11671	0.166649	0.246649	-0.128915	0.0615316	0.00018752	0.0133042	1.32135	-0.148005	0.317219	0.79042	0.384834	1.47363	-0.109517	0.806014	0.570064	2.09
8.095	-0.171887	-0.0360768	-0.00425454	-0.202733	0.924104	-1.20594	0.260425	-0.0883605	-0.252782	0.233835	0.0718801	0.155405	0.178791	-0.128915	0.245642	-0.222225	-0.316982	0.211689	0.115231	0.165382	0.246278	-0.128915	0.0610033	-5.34383e-05	0.0132246	1.32644	-0.148246	0.317582	0.790084	0.384482	1.47766	-0.10884	0.807028	0.568774	2.09
8.1	-0.17754	-0.0358019	-0.00411216	-0.203597	0.9237	-1.20587	0.270884	-0.0888947	-0.255625	0.240465	0.0700883	0.15631	0.181487	-0.128915	0.255334	-0.221697	-0.316002	0.215979	0.113427	0.164049	0.245658	-0.128915	0.0628568	-0.000562048	0.0126291	1.33134	-0.148513	0.320675	0.788758	0.377602	1.48182	-0.109092	0.809734	0.567502	2.09
8.105	-0.182396	-0.0354841	-0.00405605	-0.204495	0.923359	-1.2058	0.280358	-0.089427	-0.25625	0.246585	0.0689164	0.156392	0.180972	-0.128915	0.264111	-0.221105	-0.314355	0.220053	0.111778	0.163109	0.243628	-0.128915	0.0633877	-0.00113338	0.0123252	1.33648	-0.148686	0.322105	0.787537	0.377566	1.48619	-0.109058	0.812105	0.566633	2.09
8.11	-0.187384	-0.0351645	-0.0040071	-0.205471	0.922997	-1.20573	0.290175	-0.0898502	-0.256786	0.252832	0.0675144	0.156375	0.180316	-0.128915	0.273322	-0.220593	-0.312491	0.224494	0.110175	0.162555	0.241485	-0.128915	0.0639046	-0.00166954	0.0117947	1.34133	-0.148866	0.327588	0.786526	0.379456	1.49076	-0.109351	0.815352	0.565452	2.09
8.115	-0.192514	-0.0349366	-0.00402725	-0.206497	0.922606	-1.20567	0.300322	-0.0901648	-0.257152	0.25929	0.0660438	0.15639	0.179457	-0.128915	0.282883	-0.220244	-0.310803	0.229266	0.108683	0.162025	0.239113	-0.128915	0.0643182	-0.00210334	0.0113847	1.34657	-0.148718	0.330397	0.785823	0.379121	1.49559	-0.109576	0.81919	0.564138	2.09
8.12	-0.197811	-0.0348715	-0.00388232	-0.207568	0.922183	-1.20561	0.310785	-0.09036	-0.257612	0.265993	0.0645343	0.156463	0.178529	-0.128915	0.292878	-0.220115	-0.308714	0.234363	0.107318	0.161565	0.236575	-0.128915	0.0646139	-0.00246832	0.0108936	1.35224	-0.148766	0.33186	0.785273	0.37844	1.50054	-0.109508	0.822766	0.562899	2.09
8.125	-0.203302	-0.0345796	-0.00367832	-0.208685	0.921738	-1.20557	0.321723	-0.0908467	-0.258123	0.273114	0.0629408	0.156703	0.177615	-0.128915	0.303269	-0.219764	-0.306357	0.239744	0.106021	0.161086	0.233877	-0.128915	0.0649889	-0.00300322	0.0100588	1.35784	-0.148899	0.3369	0.783531	0.380176	1.50542	-0.109965	0.826643	0.562259	2.09
8.13	-0.20879	-0.0341959	-0.00346012	-0.209851	0.921274	-1.20552	0.332896	-0.0914481	-0.258607	0.280589	0.0612837	0.15709	0.176624	-0.128915	0.313987	-0.219414	-0.30379	0.245724	0.104799	0.160862	0.230902	-0.128915	0.0649968	-0.00369815	0.00917378	1.36359	-0.149017	0.34143	0.782357	0.380518	1.51084	-0.110987	0.831782	0.562328	2.09
8.135	-0.214153	-0.033795	-0.00332483	-0.21107	0.920779	-1.2055	0.344202	-0.0921671	-0.258746	0.288486	0.059774	0.157622	0.175383	-0.128915	0.324961	-0.218972	-0.301128	0.252337	0.103214	0.161464	0.227445	-0.128915	0.0646322	-0.00426581	0.00861729	1.36961	-0.149126	0.344563	0.781707	0.379884	1.51648	-0.11167	0.837042	0.561953	2.09
8.14	-0.220052	-0.0334155	-0.00323411	-0.212369	0.920184	-1.20547	0.356424	-0.0928107	-0.258677	0.296848	0.0580927	0.158381	0.173964	-0.128915	0.337092	-0.218512	-0.298783	0.25986	0.101131	0.162736	0.223473	-0.128915	0.0646564	-0.00496772	0.00806244	1.37572	-0.149316	0.347379	0.781118	0.379199	1.52242	-0.112091	0.842252	0.56101	2.09
8.145	-0.226308	-0.0330349	-0.00309672	-0.21373	0.919512	-1.20545	0.369258	-0.0934326	-0.258451	0.305515	0.056261	0.159298	0.17226	-0.128915	0.350042	-0.218148	-0.296779	0.268236	0.0990531	0.163676	0.221439	-0.128915	0.0648817	-0.00576259	0.00741653	1.38206	-0.149662	0.35047	0.780211	0.378913	1.52855	-0.112424	0.847806	0.559843	2.09
8.15	-0.232698	-0.032488	-0.00287012	-0.215144	0.918794	-1.20545	0.382615	-0.094487	-0.257958	0.314942	0.0547746	0.160457	0.170145	-0.128915	0.363509	-0.217642	-0.294444	0.277219	0.0971693	0.164157	0.219495	-0.128915	0.0650365	-0.00653139	0.00668215	1.38871	-0.149814	0.353654	0.778968	0.378953	1.53474	-0.1131	0.853878	0.559258	2.09
8.155	-0.238779	-0.0317596	-0.00267913	-0.216597	0.918056	-1.20544	0.395977	-0.0957709	-0.257239	0.324949	0.0532969	0.16185	0.16775	-0.128915	0.376904	-0.217028	-0.291509	0.286607	0.095363	0.165516	0.21534	-0.128915	0.0645542	-0.00746728	0.00603941	1.3955	-0.149725	0.356151	0.777823	0.379735	1.54133	-0.113808	0.860417	0.558658	2.09
8.16	-0.244609	-0.0309558	-0.00262812	-0.21807	0.917285	-1.20543	0.40933	-0.0970925	-0.256098	0.335365	0.051808	0.163421	0.165073	-0.128915	0.390128	-0.216584	-0.289115	0.296435	0.0938221	0.166606	0.21243	-0.128915	0.0635816	-0.00848579	0.0055396	1.40233	-0.149525	0.357942	0.776851	0.381985	1.5482	-0.114439	0.867314	0.557859	2.09
8.165	-0.250155	-0.0301599	-0.00251064	-0.219548	0.916499	-1.20547	0.422478	-0.0985747	-0.25466	0.346035	0.0505694	0.165072	0.162158	-0.128915	0.40316	-0.216179	-0.286715	0.30656	0.0925162	0.167091	0.210617	-0.128915	0.0621052	-0.00947182	0.00517753	1.40924	-0.149547	0.359355	0.775887	0.385837	1.55529	-0.115024	0.875016	0.557246	2.09
8.17	-0.257276	-0.0291578	-0.00245945	-0.221163	0.915453	-1.20547	0.43813	-0.100367	-0.252727	0.357907	0.0494234	0.167012	0.15873	-0.128915	0.41851	-0.215727	-0.282315	0.317495	0.0917114	0.168167	0.205023	-0.128915	0.0622855	-0.0107924	0.00432986	1.41697	-0.150325	0.364905	0.775451	0.365729	1.56226	-0.11563	0.880956	0.555776	2.09
8.175	-0.263048	-0.028008	-0.0024321	-0.2228	0.914473	-1.2055	0.452511	-0.102439	-0.250637	0.370046	0.0483459	0.169125	0.155687	-0.128915	0.432619	-0.215041	-0.279047	0.328916	0.0902986	0.170174	0.20018	-0.128915	0.060506	-0.0123488	0.00384459	1.42516	-0.151467	0.370665	0.774327	0.362878	1.57003	-0.115956	0.88801	0.554428	2.09
8.18	-0.268082	-0.02722	-0.00205318	-0.224559	0.913466	-1.20556	0.466503	-0.104294	-0.249456	0.382907	0.0470311	0.171097	0.152011	-0.128915	0.446456	-0.214731	-0.276124	0.34101	0.0890086	0.171775	0.197238	-0.128915	0.0573192	-0.0136125	0.00310329	1.43372	-0.152266	0.373964	0.773568	0.360437	1.57854	-0.116075	0.895109	0.553454	2.09
8.185	-0.273131	-0.0265766	-0.00115346	-0.226403	0.912396	-1.20565	0.480932	-0.106465	-0.248898	0.396804	0.0459913	0.172795	0.147383	-0.128915	0.460851	-0.21439	-0.272408	0.35359	0.0876699	0.173667	0.193487	-0.128915	0.0538379	-0.0144693	0.00183772	1.44257	-0.152086	0.374235	0.772681	0.358113	1.58704	-0.11645	0.901413	0.553045	2.09
8.19	-0.279152	-0.0255079	-0.000814185	-0.228165	0.911166	-1.20571	0.496701	-0.109035	-0.247142	0.411217	0.0452819	0.174989	0.143215	-0.128915	0.476177	-0.213817	-0.269588	0.366518	0.0860258	0.176372	0.189714	-0.128915	0.0517105	-0.0156773	0.00106053	1.45101	-0.151842	0.374295	0.771845	0.357331	1.59498	-0.11687	0.907688	0.55287	2.09
8.195	-0.285298	-0.0241889	-0.000823203	-0.229847	0.909829	-1.20578	0.512711	-0.111869	-0.244688	0.425894	0.0448612	0.177746	0.139468	-0.128915	0.491463	-0.21315	-0.267881	0.3797	0.0842863	0.178825	0.188179	-0.128915	0.0499666	-0.017255	0.000262215	1.45877	-0.151729	0.377971	0.770356	0.359946	1.60277	-0.117589	0.914314	0.552332	2.09
8.2	-0.291336	-0.0228751	-0.000841926	-0.231542	0.908412	-1.20585	0.528773	-0.114839	-0.242103	0.44094	0.0446901	0.180785	0.135757	-0.128915	0.506871	-0.212539	-0.266253	0.393296	0.082561	0.181444	0.185963	-0.128915	0.0479644	-0.0189209	-0.000463574	1.46661	-0.151701	0.380916	0.769174	0.360959	1.61058	-0.11805	0.919443	0.551577	2.09
8.205	-0.297136	-0.0215411	-0.000726291	-0.233284	0.906938	-1.20592	0.544781	-0.117973	-0.239473	0.45634	0.0447041	0.183852	0.131944	-0.128915	0.522378	-0.211893	-0.26421	0.407374	0.0808052	0.184385	0.182972	-0.128915	0.045456	-0.0204988	-0.0011917	1.47494	-0.151577	0.383083	0.767993	0.36038	1.61863	-0.118392	0.924626	0.55077	2.09
8.21	-0.303007	-0.0202918	-0.000533455	-0.235051	0.905323	-1.20598	0.561129	-0.121129	-0.236727	0.472268	0.0448932	0.187135	0.127908	-0.128915	0.538168	-0.21149	-0.261753	0.421829	0.0793955	0.187786	0.179603	-0.128915	0.0429884	-0.0220303	-0.00199694	1.48344	-0.15138	0.385094	0.76667	0.359785	1.62703	-0.118962	0.930887	0.549383	2.09
8.215	-0.308692	-0.0189771	-0.000343958	-0.236809	0.903628	-1.20605	0.57745	-0.124412	-0.233595	0.48852	0.0452085	0.190701	0.123773	-0.128915	0.553806	-0.211096	-0.259367	0.436474	0.0781128	0.191441	0.176409	-0.128915	0.0402157	-0.0235709	-0.00284658	1.492	-0.15106	0.386379	0.765507	0.359196	1.63544	-0.119572	0.936677	0.548096	2.09
